<svg xmlns="http://www.w3.org/2000/svg" width="287.356" height="35.133" viewBox="0 0 287.356 35.133">
  <g id="SpaceX_logo_white" transform="translate(-1.5 -0.7)">
    <g id="Group_3" data-name="Group 3" transform="translate(1.5 13.568)">
      <path id="Path_1" data-name="Path 1" d="M27.525,27.175H8.3V22.4h24.8c-.651-2.024-2.747-3.9-6.434-3.9h-18c-4.121,0-6.506,1.518-6.506,4.843v3.542c0,2.892,2.458,4.554,6.072,4.554H27.669V36.5H1.5c.651,2.747,2.747,4.193,6.506,4.193H27.6c4.121,0,6.145-1.59,6.145-4.988V32.163c0-3.108-2.386-4.771-6.217-4.988Z" transform="translate(-1.5 -18.5)" fill="#fff"/>
    </g>
    <g id="Group_4" data-name="Group 4" transform="translate(43.067 13.64)">
      <path id="Path_2" data-name="Path 2" d="M82.711,18.6H59V40.793h6.723v-8.53H83.217c4.843,0,7.518-1.663,7.518-5.566V24.239c-.072-3.615-3.108-5.639-8.024-5.639Zm2.169,7.084c0,1.59-.289,2.458-2.892,2.458H65.723l.072-5.783H81.7c2.892,0,3.253.867,3.253,2.386v.94Z" transform="translate(-59 -18.6)" fill="#fff"/>
    </g>
    <g id="Group_5" data-name="Group 5" transform="translate(79.285 12.7)">
      <path id="Path_3" data-name="Path 3" d="M124.136,17.3l-4.048,4.988,6.868,9.47H112.642L109.1,35.517h20.675l3.542,4.916h7.952Z" transform="translate(-109.1 -17.3)" fill="#fff"/>
    </g>
    <g id="Group_6" data-name="Group 6" transform="translate(117.527 13.568)">
      <path id="Path_4" data-name="Path 4" d="M168.8,22.4h25.157c-.651-2.6-3.181-3.9-6.8-3.9h-18.8c-3.253,0-6.362,1.3-6.362,4.843V35.777c0,3.542,3.109,4.843,6.362,4.843h19.012c4.337,0,5.856-1.229,6.578-4.193H168.8V22.4Z" transform="translate(-162 -18.5)" fill="#fff"/>
    </g>
    <g id="Group_7" data-name="Group 7" transform="translate(158.66 13.64)">
      <path id="Path_5" data-name="Path 5" d="M225.7,39.454v-6.8h13.518V28.9H218.9V43.647h30V39.454Z" transform="translate(-218.9 -21.454)" fill="#fff"/>
      <rect id="Rectangle_3" data-name="Rectangle 3" width="30.29" height="3.904" transform="translate(0.723)" fill="#fff"/>
    </g>
    <g id="Group_8" data-name="Group 8" transform="translate(197.769 13.64)">
      <path id="Path_6" data-name="Path 6" d="M283.554,18.6H273l12.434,9.109c1.807-1.229,3.9-2.53,5.783-3.615ZM298.88,29.95c-1.807,1.229-3.615,2.6-5.35,3.9l9.4,6.868h10.627L298.88,29.95Z" transform="translate(-273 -18.6)" fill="#fff"/>
    </g>
    <g id="Group_9" data-name="Group 9" transform="translate(197.046 0.7)">
      <path id="Path_7" data-name="Path 7" d="M363.809.7c-57.833,3.325-84.58,28.049-90.58,33.9L272,35.761h10.7C311.615,6.772,353.182,1.64,363.809.7Z" transform="translate(-272 -0.7)" fill="#fff"/>
    </g>
  </g>
</svg>
